<?xml version="1.0" standalone="no"?>
<!DOCTYPE svg PUBLIC "-//W3C//DTD SVG 20010904//EN"
 "http://www.w3.org/TR/2001/REC-SVG-20010904/DTD/svg10.dtd">
<svg version="1.0" xmlns="http://www.w3.org/2000/svg"
 width="1330.000000pt" height="855.000000pt" viewBox="0 0 1330.000000 855.000000"
 preserveAspectRatio="xMidYMid meet">
<metadata>
Created by potrace 1.16, written by Peter Selinger 2001-2019
</metadata>
<g transform="translate(0.000000,855.000000) scale(0.100000,-0.100000)"
fill="#000000" stroke="none">
<path d="M6395 6394 c-22 -2 -96 -8 -165 -14 -142 -12 -286 -32 -445 -61 -144
-26 -145 -27 -145 -168 0 -108 17 -391 24 -398 2 -2 64 8 138 21 543 101 1189
99 1725 -5 58 -11 107 -18 109 -16 7 7 24 288 24 398 0 141 -1 142 -145 168
-311 56 -480 72 -805 76 -151 1 -293 1 -315 -1z m172 -123 l83 -21 87 22 c70
18 118 22 239 22 147 1 153 0 212 -28 l60 -29 82 -180 c45 -98 79 -181 76
-184 -3 -3 -56 2 -118 10 -209 30 -362 39 -638 39 -276 0 -429 -9 -638 -39
-62 -8 -115 -13 -118 -10 -3 3 31 86 76 184 l82 180 56 26 c79 36 80 36 237
32 97 -2 165 -10 222 -24z"/>
<path d="M6135 6201 c-24 -14 -41 -42 -77 -127 -25 -60 -45 -110 -43 -112 1
-1 33 3 71 9 40 7 164 12 292 12 122 0 222 4 222 8 0 9 -65 30 -156 50 -32 7
-116 13 -186 14 -71 0 -128 1 -128 2 0 1 14 37 30 80 17 42 30 79 30 80 0 9
-29 0 -55 -16z"/>
<path d="M7110 6216 c0 -2 14 -40 30 -83 17 -42 30 -78 30 -78 0 0 -57 0 -127
0 -71 -1 -155 -7 -187 -14 -91 -20 -156 -41 -156 -50 0 -4 100 -8 223 -8 127
0 251 -5 291 -12 38 -6 70 -10 71 -9 7 8 -96 225 -112 234 -22 14 -63 27 -63
20z"/>
<path d="M6325 5743 c-194 -13 -620 -75 -639 -94 -6 -5 -1 -50 13 -116 92
-440 338 -856 661 -1116 71 -57 231 -167 244 -167 3 0 6 338 6 750 l0 750
-117 -2 c-65 -1 -140 -3 -168 -5z m32 -184 c77 -37 144 -110 173 -187 29 -77
25 -195 -10 -267 -67 -138 -223 -220 -370 -193 -213 39 -345 270 -264 463 79
191 289 272 471 184z"/>
<path d="M6690 5653 l0 -98 95 -63 95 -62 0 -215 0 -214 -92 59 -93 59 -3
-431 c-1 -237 0 -433 2 -436 3 -2 45 22 93 54 l88 59 3 313 c1 171 5 312 8
312 2 0 45 -27 94 -60 l90 -61 0 -165 c0 -194 -9 -190 109 -49 205 246 355
557 422 878 14 66 19 111 13 116 -5 5 -46 15 -91 24 l-83 14 0 -309 c0 -271
-2 -309 -15 -304 -8 3 -48 28 -90 56 -41 27 -77 50 -80 50 -3 0 -5 -94 -5
-210 0 -115 -2 -210 -5 -210 -3 0 -43 25 -90 57 l-85 56 0 214 c0 169 3 213
13 207 6 -4 44 -29 84 -56 40 -26 75 -48 78 -48 3 0 5 119 5 264 l0 263 -61 7
c-34 3 -75 6 -90 6 l-29 0 -2 -210 -3 -210 -92 62 -93 61 0 158 0 159 -95 0
-95 0 0 -97z"/>
<path d="M2272 3873 c2 -13 16 -20 47 -24 56 -7 78 -33 86 -104 4 -31 5 -232
2 -448 -7 -551 -16 -583 -162 -546 -52 13 -82 1 -91 -38 -10 -40 18 -56 84
-49 129 15 236 116 268 255 10 41 14 156 14 431 1 370 6 460 28 482 6 6 28 14
49 17 25 4 39 12 41 24 3 16 -11 17 -183 17 -172 0 -186 -1 -183 -17z"/>
<path d="M6140 3875 c0 -8 11 -17 25 -20 14 -3 36 -7 50 -10 15 -3 30 -16 35
-31 14 -35 13 -769 0 -795 -6 -11 -30 -24 -56 -30 -31 -8 -44 -16 -42 -26 3
-13 32 -16 180 -17 159 -1 178 1 178 15 0 12 -13 19 -44 23 -76 12 -81 23 -84
222 -3 126 0 179 8 189 10 12 56 15 264 15 183 0 255 -3 264 -12 8 -8 12 -63
12 -184 0 -156 -2 -174 -20 -197 -13 -16 -35 -28 -61 -32 -28 -5 -39 -11 -37
-22 4 -22 351 -21 356 1 2 10 -10 16 -39 21 -82 14 -79 -4 -79 424 0 220 4
390 10 405 5 15 20 28 35 31 14 3 36 7 50 10 14 3 25 12 25 20 0 13 -28 15
-181 15 -166 0 -180 -1 -177 -17 2 -12 16 -20 41 -24 69 -11 72 -19 72 -207
l0 -167 -30 -6 c-39 -9 -441 -9 -480 0 l-30 6 0 167 c0 188 3 196 72 207 25 4
39 12 41 24 3 16 -11 17 -177 17 -153 0 -181 -2 -181 -15z"/>
<path d="M2945 3746 c-146 -35 -263 -149 -300 -292 -63 -242 74 -467 313 -514
202 -40 384 45 470 218 36 74 37 78 37 191 0 109 -2 120 -31 182 -41 85 -89
138 -161 176 -97 52 -218 66 -328 39z m220 -53 c85 -44 151 -144 176 -262 6
-30 9 -96 7 -145 -4 -100 -35 -185 -86 -240 -91 -97 -273 -102 -381 -10 -49
43 -107 154 -122 239 -15 79 -6 197 20 265 24 65 85 129 151 160 59 27 175 24
235 -7z"/>
<path d="M5470 3751 c-69 -21 -130 -72 -149 -124 -17 -43 -13 -117 8 -162 24
-52 65 -90 181 -167 76 -50 99 -72 118 -108 57 -114 -3 -220 -126 -220 -90 0
-157 48 -196 143 -21 51 -36 47 -35 -10 1 -83 19 -126 62 -146 55 -28 179 -34
250 -13 120 35 183 152 147 275 -19 66 -60 110 -177 187 -69 45 -121 87 -133
107 -64 104 -6 207 116 207 65 0 110 -29 144 -93 14 -26 30 -45 35 -43 11 3
12 62 2 117 -7 35 -9 36 -71 47 -70 13 -138 14 -176 3z"/>
<path d="M7495 3754 c-218 -53 -344 -221 -333 -442 3 -66 10 -101 30 -144 119
-258 486 -321 688 -118 139 138 160 369 50 541 -67 104 -176 159 -325 165 -49
1 -99 1 -110 -2z m200 -61 c123 -65 192 -219 182 -409 -7 -144 -59 -238 -159
-288 -62 -31 -149 -35 -221 -10 -140 47 -227 222 -215 428 9 138 60 225 161
277 57 28 69 30 137 26 50 -2 88 -11 115 -24z"/>
<path d="M10870 3747 c-93 -31 -141 -87 -148 -173 -9 -108 32 -166 198 -276
76 -50 99 -72 118 -108 57 -114 -3 -220 -126 -220 -90 0 -158 49 -197 144 -34
80 -50 5 -21 -97 15 -55 58 -77 164 -84 178 -12 292 73 292 218 0 101 -43 160
-187 255 -146 96 -180 147 -152 228 19 56 66 86 134 86 66 0 112 -29 143 -90
29 -59 48 -59 45 0 -5 103 -6 105 -77 118 -78 15 -140 14 -186 -1z"/>
<path d="M3480 3725 c0 -10 10 -15 33 -15 22 0 41 -8 53 -21 18 -20 19 -40 19
-344 0 -351 1 -348 -58 -363 -17 -4 -32 -13 -35 -20 -3 -9 35 -12 153 -12 121
0 156 3 153 12 -3 7 -22 16 -43 19 -61 10 -65 23 -65 195 0 129 2 153 16 158
27 11 404 7 425 -4 17 -10 19 -23 19 -150 0 -169 -5 -187 -60 -196 -28 -5 -40
-12 -40 -23 0 -14 18 -16 150 -16 136 0 150 2 150 18 0 12 -8 17 -30 17 -17 0
-39 9 -50 20 -19 19 -20 33 -20 345 0 312 1 326 20 345 11 11 33 20 50 20 20
0 30 5 30 15 0 13 -23 15 -150 15 -127 0 -150 -2 -150 -15 0 -10 10 -15 28
-15 61 0 67 -14 71 -166 3 -123 1 -139 -15 -151 -13 -10 -68 -13 -215 -13
-109 0 -204 3 -213 6 -14 5 -16 28 -16 149 0 125 2 144 18 158 10 10 31 17 45
17 17 0 27 5 27 15 0 13 -23 15 -150 15 -127 0 -150 -2 -150 -15z"/>
<path d="M4392 3728 c3 -7 18 -15 34 -19 45 -9 74 -28 84 -55 12 -31 12 -552
1 -612 -10 -52 -12 -54 -58 -61 -20 -3 -38 -12 -41 -19 -3 -9 29 -12 137 -12
119 0 141 2 141 15 0 10 -10 15 -33 15 -47 0 -68 19 -78 71 -10 56 -12 529 -1
529 4 0 26 -21 47 -47 22 -27 136 -158 254 -293 118 -135 227 -260 242 -277
16 -18 33 -33 38 -33 6 0 11 136 13 371 l3 371 24 19 c13 10 34 19 47 19 15 0
24 6 24 15 0 13 -22 15 -141 15 -108 0 -140 -3 -137 -12 3 -7 21 -16 42 -19
52 -8 66 -26 76 -100 12 -84 13 -469 1 -469 -5 0 -100 102 -212 228 -195 218
-299 346 -299 363 0 5 -48 9 -106 9 -79 0 -105 -3 -102 -12z"/>
<path d="M8015 3730 c-11 -17 5 -30 36 -30 16 0 38 -9 49 -20 20 -20 21 -30
18 -346 -3 -309 -4 -326 -22 -340 -11 -8 -32 -14 -48 -14 -18 0 -28 -5 -28
-15 0 -11 28 -15 155 -17 142 -3 155 -2 155 15 0 13 -8 17 -35 17 -22 0 -43 8
-55 20 -19 19 -20 33 -20 359 0 387 -7 359 90 346 121 -17 186 -118 159 -245
-14 -65 -59 -112 -128 -135 -94 -31 -31 -49 70 -19 77 23 115 49 147 102 74
127 -1 289 -148 321 -65 14 -387 15 -395 1z"/>
<path d="M8610 3725 c0 -10 10 -15 33 -15 74 -1 77 -16 77 -364 0 -319 -4
-352 -48 -362 -44 -9 -52 -13 -52 -23 0 -6 61 -11 150 -13 137 -3 150 -2 150
15 0 13 -8 17 -33 17 -61 0 -67 17 -67 194 0 131 3 158 15 162 8 4 23 0 32 -7
36 -30 293 -325 293 -336 0 -7 -11 -13 -23 -13 -28 0 -37 -7 -31 -23 5 -15
284 -11 284 4 0 10 -7 13 -54 24 -16 3 -52 30 -84 63 -105 109 -302 340 -302
355 0 16 224 226 283 265 21 14 59 31 85 37 25 7 48 17 50 23 3 9 -34 12 -132
12 -109 0 -136 -3 -136 -14 0 -7 14 -16 30 -20 26 -5 29 -9 21 -23 -18 -34
-298 -303 -314 -303 -15 0 -17 16 -17 149 0 162 2 168 61 180 16 3 30 11 30
16 -1 6 -60 11 -151 13 -129 2 -150 0 -150 -13z"/>
<path d="M9432 3728 c3 -7 22 -16 43 -19 66 -11 65 -7 65 -366 0 -310 -1 -324
-20 -343 -11 -11 -33 -20 -50 -20 -22 0 -30 -5 -30 -17 0 -17 13 -18 156 -15
115 2 154 6 151 15 -2 7 -20 15 -41 18 -20 3 -42 11 -49 18 -17 17 -17 675 0
692 7 7 29 15 49 18 21 3 39 12 42 19 3 9 -33 12 -158 12 -125 0 -161 -3 -158
-12z"/>
<path d="M9805 3731 c-7 -12 2 -17 47 -25 23 -4 45 -17 58 -34 21 -26 21 -34
18 -345 -3 -302 -4 -319 -22 -333 -11 -8 -32 -14 -48 -14 -18 0 -28 -5 -28
-14 0 -12 25 -15 135 -18 95 -2 136 0 139 9 7 17 -4 23 -39 23 -48 0 -67 20
-76 81 -10 74 -11 519 -1 519 5 0 29 -24 53 -52 24 -29 141 -163 259 -298 118
-135 225 -258 236 -273 12 -15 27 -27 32 -27 7 0 12 120 14 370 3 409 1 395
69 409 18 3 34 12 37 19 3 9 -31 12 -137 12 -113 0 -141 -3 -141 -14 0 -8 16
-15 41 -19 23 -3 45 -9 50 -14 19 -19 29 -135 29 -340 0 -117 -4 -213 -8 -213
-9 0 -339 367 -427 475 -30 36 -62 79 -72 95 -17 30 -17 30 -115 30 -53 0 -99
-4 -103 -9z"/>
<path d="M8771 2544 c-17 -61 -13 -68 18 -35 26 28 35 31 85 31 l56 0 0 -169
c0 -181 -3 -201 -29 -201 -9 0 -23 -5 -31 -10 -10 -7 15 -9 80 -9 91 1 94 1
63 15 l-33 14 0 180 0 180 55 0 c56 0 95 -22 95 -52 0 -9 4 -8 10 2 5 8 10 33
10 54 0 31 -3 37 -12 28 -16 -16 -329 -17 -345 -1 -8 8 -14 1 -22 -27z"/>
<path d="M7714 2560 c-35 -14 -64 -59 -64 -101 0 -45 32 -88 96 -125 55 -32
74 -59 74 -101 0 -72 -86 -100 -138 -45 -15 15 -32 37 -39 47 -11 18 -12 16
-12 -15 -1 -43 7 -56 42 -69 67 -26 159 -1 185 49 19 36 9 106 -19 137 -13 14
-43 36 -67 50 -49 29 -82 67 -82 95 0 28 45 68 76 68 18 0 38 -12 60 -36 l34
-35 0 36 c0 29 -5 37 -26 45 -31 12 -91 12 -120 0z"/>
<path d="M3460 2547 c14 -6 28 -16 32 -22 4 -5 8 -68 8 -140 1 -165 15 -204
84 -230 31 -12 62 -16 97 -13 95 9 139 67 139 183 0 39 3 101 7 138 5 61 9 70
32 80 26 11 26 11 -11 15 -21 2 -55 1 -75 -1 -34 -3 -35 -5 -15 -12 13 -4 28
-19 33 -32 12 -33 11 -209 -1 -255 -31 -109 -183 -121 -224 -18 -12 30 -16 73
-16 165 0 125 0 126 25 135 14 5 25 12 25 15 0 3 -37 5 -82 4 -71 0 -79 -2
-58 -12z"/>
<path d="M4210 2550 c0 -5 8 -10 18 -10 38 0 42 -18 42 -192 l0 -168 -27 -12
-28 -12 38 -4 c20 -2 54 -2 75 0 37 4 37 4 11 15 -15 6 -29 19 -33 28 -9 25
-7 277 3 273 5 -1 30 -29 57 -60 159 -186 230 -267 237 -267 4 -1 7 82 7 183
0 101 3 191 6 200 3 9 15 16 25 16 10 0 19 5 19 10 0 6 -30 10 -70 10 -40 0
-70 -4 -70 -10 0 -5 11 -10 25 -10 33 0 36 -18 33 -168 l-3 -123 -120 136
c-66 75 -124 145 -129 155 -7 16 -19 20 -63 20 -29 0 -53 -4 -53 -10z"/>
<path d="M5016 2551 c5 -5 18 -11 29 -13 19 -3 20 -12 23 -181 l2 -177 -32
-14 c-32 -14 -30 -14 55 -15 56 -1 86 3 82 9 -3 6 -14 10 -25 10 -10 0 -21 7
-24 16 -3 9 -6 85 -6 169 0 84 3 160 6 169 3 9 14 16 24 16 11 0 22 5 25 10 4
6 -26 10 -81 10 -53 0 -84 -4 -78 -9z"/>
<path d="M5510 2550 c0 -5 6 -10 13 -10 25 0 44 -34 118 -217 40 -101 76 -183
79 -183 3 0 12 17 19 38 21 58 131 304 147 330 8 13 27 28 42 35 l27 11 -37 4
c-21 2 -55 1 -75 -1 -33 -3 -35 -5 -15 -12 12 -4 22 -14 22 -22 0 -26 -113
-284 -120 -276 -12 13 -110 261 -110 277 0 9 6 16 14 16 8 0 18 5 21 10 4 6
-22 10 -69 10 -44 0 -76 -4 -76 -10z"/>
<path d="M6270 2550 c0 -5 9 -10 19 -10 10 0 22 -7 25 -16 3 -9 6 -85 6 -169
0 -84 -3 -160 -6 -169 -3 -9 -14 -16 -24 -16 -11 0 -22 -4 -25 -10 -4 -7 48
-10 148 -10 l155 0 11 31 c19 55 12 62 -23 25 -31 -34 -37 -36 -94 -36 -82 0
-92 11 -92 106 l0 74 55 0 c50 0 56 -2 65 -25 15 -40 20 -29 19 43 -1 59 -2
64 -12 40 -11 -29 -50 -43 -98 -36 -23 3 -24 7 -27 86 l-3 82 56 0 c66 0 89
-10 109 -48 l15 -27 1 48 0 47 -140 0 c-87 0 -140 -4 -140 -10z"/>
<path d="M6940 2552 c0 -4 10 -12 23 -17 21 -10 22 -14 25 -182 l2 -173 -32
-14 c-32 -14 -31 -14 50 -15 53 -1 81 3 77 9 -3 6 -12 10 -20 10 -19 0 -25 23
-25 96 l0 65 32 -3 c27 -3 39 -14 83 -78 32 -47 64 -81 86 -92 37 -20 89 -24
89 -8 0 6 -6 10 -14 10 -20 0 -70 52 -118 123 l-40 60 31 24 c41 32 58 90 40
129 -23 48 -70 64 -186 64 -57 0 -103 -3 -103 -8z m211 -41 c37 -37 39 -88 6
-127 -19 -21 -33 -27 -68 -28 l-44 -1 -3 79 c-2 44 -1 85 2 93 3 7 21 13 41
13 27 0 44 -8 66 -29z"/>
<path d="M8240 2551 c0 -5 10 -11 23 -13 22 -3 22 -5 25 -181 l2 -177 -25 -10
c-14 -5 -25 -12 -25 -15 0 -3 36 -5 81 -5 51 0 78 4 74 10 -3 6 -14 10 -25 10
-10 0 -21 7 -24 16 -3 9 -6 85 -6 169 0 84 3 160 6 169 3 9 14 16 24 16 11 0
22 5 25 10 4 6 -23 10 -74 10 -45 0 -81 -4 -81 -9z"/>
<path d="M9473 2554 c4 -4 17 -12 29 -18 27 -13 123 -193 132 -246 9 -59 -4
-110 -30 -121 -13 -4 -24 -11 -24 -14 0 -3 39 -5 88 -4 84 1 86 1 55 15 l-33
14 0 75 c0 72 2 80 47 158 51 90 80 127 99 127 7 0 16 5 19 10 4 6 -18 10 -59
10 -37 0 -66 -4 -66 -10 0 -5 9 -10 20 -10 11 0 20 -3 20 -7 0 -5 -22 -48 -49
-97 l-49 -89 -41 81 c-44 88 -50 112 -26 112 8 0 15 5 15 10 0 6 -32 10 -77
10 -42 0 -73 -3 -70 -6z"/>
</g>
</svg>
